<svg xmlns:dc="http://purl.org/dc/elements/1.1/" xmlns:cc="http://creativecommons.org/ns#" xmlns:rdf="http://www.w3.org/1999/02/22-rdf-syntax-ns#" xmlns:svg="http://www.w3.org/2000/svg" xmlns="http://www.w3.org/2000/svg" xmlns:sodipodi="http://sodipodi.sourceforge.net/DTD/sodipodi-0.dtd" xmlns:inkscape="http://www.inkscape.org/namespaces/inkscape" version="1.1" x="0px" y="0px" viewBox="0 0 100 125"><g transform="translate(0,-952.36218)"><path style="text-indent:0;text-transform:none;direction:ltr;block-progression:tb;baseline-shift:baseline;color:#000000;enable-background:accumulate;" d="M 22,5 C 16.512685,5 12,9.51269 12,15 l 0,70 c 0,5.4873 4.512685,10 10,10 1.361302,-0.0116 3.368629,-0.9966 5.0625,-1.875 1.981332,-1.0227 53.108687,-32.55045 54.78125,-33.65625 1.178681,-0.7813 2.623261,-1.65145 3.6875,-2.78125 C 87.170037,54.862 88,52.4535 88,50 88,47.546472 87.170037,45.137988 85.53125,43.3125 84.467011,42.18267 83.022431,41.312607 81.84375,40.53125 80.171187,39.42542 29.043832,7.8977 27.0625,6.875 25.368629,5.9965608 23.361302,5.0115196 22,5 z m -0.28125,6.0625 c 0.927277,0.202223 1.883767,0.759543 2.59375,1.125 1.819219,0.93902 52.579549,32.29123 54.21875,33.375 1.0042,0.645503 2.006164,1.236321 2.78125,2.0625 C 81.757243,48.232386 82,48.986512 82,50 c 0,1.0135 -0.242757,1.7676 -0.6875,2.375 -0.775086,0.8261 -1.77705,1.417 -2.78125,2.0625 -1.639201,1.0837 -52.399531,32.4359 -54.21875,33.375 -0.709983,0.3655 -1.666473,0.9228 -2.59375,1.125 C 19.62067,88.7881 18,87.1429 18,85 l 0,-70 c 0,-2.14291 1.62067,-3.78805 3.71875,-3.9375 z" transform="translate(0,952.36218)" fill="#000000" fill-opacity="1" stroke="none" marker="none" visibility="visible" display="inline" overflow="visible"/></g><text x="0" y="115" fill="#000000" font-size="5px" font-weight="bold" font-family="'Helvetica Neue', Helvetica, Arial-Unicode, Arial, Sans-serif">Created by throwaway icons</text><text x="0" y="120" fill="#000000" font-size="5px" font-weight="bold" font-family="'Helvetica Neue', Helvetica, Arial-Unicode, Arial, Sans-serif">from the Noun Project</text></svg>